<svg width="62" height="62" viewBox="0 0 62 62" fill="none" xmlns="http://www.w3.org/2000/svg">
<path d="M8.36914 25.3716V37.3356C8.36927 37.8936 8.59063 38.4287 8.9847 38.8237C9.37877 39.2186 9.91339 39.4412 10.4713 39.4427H12.6413V23.2645H10.4713C9.91339 23.2659 9.37877 23.4885 8.9847 23.8835C8.59063 24.2785 8.36927 24.8136 8.36914 25.3716Z" fill="#83BC25"/>
<path d="M19.8203 36.1877H45.1609V39.5696H19.8203V36.1877Z" fill="#83BC25"/>
<path d="M19.8203 31.8375H45.1609V35.2189H19.8203V31.8375Z" fill="#83BC25"/>
<path d="M19.8203 23.1357H45.1609V26.5176H19.8203V23.1357Z" fill="#83BC25"/>
<path d="M19.8203 27.4863H45.1609V30.8682H19.8203V27.4863Z" fill="#83BC25"/>
<path d="M19.8203 40.5383H45.1609V44.887H19.8203V40.5383Z" fill="#83BC25"/>
<path d="M59.9941 22.6687L55.1165 18.6969C54.4209 18.1276 53.5499 17.8161 52.651 17.8153H46.1289V44.887H52.668C53.5529 44.885 54.4112 44.5846 55.1044 44.0345L59.9723 40.1353C60.3039 39.874 60.5715 39.5406 60.7549 39.1604C60.9383 38.7802 61.0326 38.3632 61.0307 37.9411V24.8533C61.0307 24.4351 60.9377 24.0221 60.7584 23.6443C60.5791 23.2665 60.3181 22.9333 59.9941 22.6687Z" fill="#83BC25"/>
<path d="M18.8513 17.8153H15.5537C15.0388 17.8161 14.5452 18.021 14.1811 18.3851C13.817 18.7491 13.6121 19.2427 13.6113 19.7577V42.9447C13.6121 43.4596 13.817 43.9532 14.1811 44.3173C14.5452 44.6814 15.0388 44.8863 15.5537 44.887H18.8513V17.8153Z" fill="#83BC25"/>
<path d="M19.8203 17.8153H45.1609V22.1669H19.8203V17.8153Z" fill="#83BC25"/>
<path d="M31.7418 15.1416C31.7421 14.9498 31.7047 14.7598 31.6316 14.5825C31.5585 14.4052 31.4512 14.244 31.3158 14.1082C31.1804 13.9724 31.0196 13.8645 30.8425 13.7908C30.6655 13.7171 30.4756 13.6791 30.2838 13.6787H22.9843C22.5965 13.6793 22.2247 13.8335 21.9505 14.1078C21.6763 14.382 21.522 14.7537 21.5215 15.1416V16.8466H31.7418V15.1416Z" fill="#83BC25"/>
<path d="M24.4903 45.8558H17.4426L16.9776 46.9795C16.9174 47.1275 16.8948 47.2881 16.9117 47.447C16.9286 47.6059 16.9845 47.7581 17.0745 47.8902C17.1622 48.0231 17.2817 48.1321 17.422 48.2074C17.5624 48.2826 17.7193 48.3218 17.8786 48.3212H24.0592C24.2185 48.3206 24.3753 48.2809 24.5157 48.2055C24.6561 48.1301 24.7758 48.0213 24.8643 47.8888C24.9528 47.7563 25.0073 47.6041 25.0232 47.4455C25.0391 47.287 25.0158 47.1269 24.9553 46.9795L24.4903 45.8558Z" fill="#83BC25"/>
<path d="M50.5157 45.8558H43.468L43.003 46.9795C42.9428 47.1275 42.9202 47.2881 42.9371 47.447C42.954 47.6059 43.0099 47.7581 43.0999 47.8902C43.1876 48.0231 43.3071 48.1321 43.4474 48.2074C43.5878 48.2826 43.7447 48.3218 43.904 48.3212H50.0846C50.2456 48.3209 50.404 48.281 50.546 48.205C50.6879 48.129 50.8089 48.0192 50.8983 47.8853C50.986 47.753 51.0395 47.6009 51.0539 47.4428C51.0682 47.2847 51.0431 47.1255 50.9807 46.9795L50.5157 45.8558Z" fill="#83BC25"/>
<path d="M0.96875 31.3512C0.96875 31.9839 1.22008 32.5906 1.66746 33.038C2.11484 33.4854 2.72161 33.7367 3.3543 33.7367H7.40125V28.9656H3.3543C2.72161 28.9656 2.11484 29.217 1.66746 29.6643C1.22008 30.1117 0.96875 30.7185 0.96875 31.3512Z" fill="#83BC25"/>
</svg>
