<svg width="50" height="50" viewBox="0 0 50 50" fill="none" xmlns="http://www.w3.org/2000/svg">
<path d="M47.4547 19.884H46.0973L39.0554 7.80527C38.3726 6.63394 37.1186 5.91364 35.7629 5.91364H2.54525C1.1396 5.91364 0 7.05323 0 8.45889V33.5156C0 34.9212 1.1396 36.0608 2.54525 36.0608H3.34005C3.40419 40.4969 7.03084 44.0867 11.4818 44.0867C15.933 44.0867 19.5594 40.497 19.6236 36.0608H30.5492C30.6133 40.4969 34.24 44.0867 38.6909 44.0867C43.1421 44.0867 46.7685 40.497 46.8327 36.0608H47.4546C48.8602 36.0608 49.9998 34.9212 49.9998 33.5156V22.4295C50 21.0236 48.8604 19.884 47.4547 19.884ZM39.6342 19.9407H29.9924C29.5518 19.9407 29.1948 19.5835 29.1948 19.143V11.8017C29.1948 11.3612 29.5519 11.004 29.9924 11.004H35.4525C35.7391 11.004 36.0038 11.1579 36.1457 11.4068L40.3274 18.748C40.6304 19.2798 40.2462 19.9407 39.6342 19.9407ZM11.4818 38.996C9.7977 38.996 8.42751 37.6258 8.42751 35.9417C8.42751 34.2576 9.7977 32.8874 11.4818 32.8874C13.1659 32.8874 14.5361 34.2576 14.5361 35.9417C14.5361 37.6258 13.1659 38.996 11.4818 38.996ZM38.6909 38.996C37.0068 38.996 35.6366 37.6258 35.6366 35.9417C35.6366 34.2576 37.0068 32.8874 38.6909 32.8874C40.375 32.8874 41.7452 34.2576 41.7452 35.9417C41.7452 37.6258 40.375 38.996 38.6909 38.996Z" fill="#83BC25"/>
</svg>
