<svg width="40" height="40" viewBox="0 0 40 40" fill="none" xmlns="http://www.w3.org/2000/svg">
<g clip-path="url(#clip0_99_103)">
<path d="M38.1253 0H23.1253C22.0953 0 20.6528 0.5975 19.9253 1.325L1.32781 19.9225C0.97714 20.2748 0.780273 20.7517 0.780273 21.2488C0.780273 21.7458 0.97714 22.2227 1.32781 22.575L17.4253 38.6725C17.7776 39.0232 18.2545 39.22 18.7516 39.22C19.2486 39.22 19.7255 39.0232 20.0778 38.6725L38.6753 20.075C39.4053 19.345 40.0003 17.905 40.0003 16.875V1.875C39.9983 1.37833 39.8002 0.90256 39.449 0.551357C39.0977 0.200153 38.622 0.00197487 38.1253 0ZM28.7503 15C28.2577 14.9998 27.7699 14.9026 27.3149 14.714C26.8598 14.5253 26.4464 14.2489 26.0981 13.9004C25.7499 13.5519 25.4737 13.1383 25.2854 12.6831C25.097 12.228 25.0001 11.7401 25.0003 11.2475C25.0005 10.7549 25.0977 10.2671 25.2863 9.81205C25.475 9.35699 25.7515 8.94355 26.0999 8.59533C26.4484 8.24711 26.862 7.97093 27.3172 7.78257C27.7724 7.5942 28.2602 7.49734 28.7528 7.4975C29.7477 7.49783 30.7017 7.89337 31.405 8.5971C32.1082 9.30083 32.5031 10.2551 32.5028 11.25C32.5025 12.2449 32.1069 13.1989 31.4032 13.9022C30.6995 14.6054 29.7452 15.0003 28.7503 15Z" fill="#83BC25"/>
</g>
<defs>
<clipPath id="clip0_99_103">
<rect width="40" height="40" fill="white"/>
</clipPath>
</defs>
</svg>
