<svg width="40" height="40" viewBox="0 0 40 40" fill="none" xmlns="http://www.w3.org/2000/svg">
<path d="M20 12.7734C18.832 12.7734 17.7344 13.2266 16.9062 14.0547C16.4993 14.4605 16.1766 14.9427 15.9567 15.4736C15.7368 16.0046 15.6241 16.5738 15.625 17.1484C15.625 18.3164 16.082 19.4141 16.9062 20.2422C17.312 20.6491 17.7943 20.9718 18.3252 21.1917C18.8561 21.4116 19.4253 21.5243 20 21.5234C21.168 21.5234 22.2656 21.0664 23.0938 20.2422C23.9219 19.4141 24.375 18.3164 24.375 17.1484C24.375 15.9805 23.9219 14.8828 23.0938 14.0547C22.2656 13.2266 21.168 12.7734 20 12.7734ZM33.3828 11.293C32.6474 9.59719 31.5871 8.0618 30.2617 6.77344C28.932 5.47344 27.3644 4.44163 25.6445 3.73438C23.8555 2.99219 21.957 2.61719 20 2.61719C18.043 2.61719 16.1445 2.99219 14.3555 3.73047C12.625 4.44531 11.0742 5.46875 9.73828 6.76953C8.41376 8.05862 7.35358 9.59383 6.61719 11.2891C5.85547 13.0469 5.46875 14.9141 5.46875 16.8359C5.46875 19.5938 6.12891 22.3398 7.42578 24.9883C8.46875 27.1172 9.92578 29.1914 11.7617 31.1641C14.8984 34.5312 18.1875 36.5898 19.1211 37.1406C19.3861 37.2971 19.6883 37.3794 19.9961 37.3789C20.3008 37.3789 20.6016 37.3008 20.8711 37.1406C21.8047 36.5898 25.0938 34.5312 28.2305 31.1641C30.0664 29.1953 31.5234 27.1172 32.5664 24.9883C33.8711 22.3438 34.5312 19.6016 34.5312 16.8398C34.5312 14.918 34.1445 13.0508 33.3828 11.293ZM20 24.0234C16.2031 24.0234 13.125 20.9453 13.125 17.1484C13.125 13.3516 16.2031 10.2734 20 10.2734C23.7969 10.2734 26.875 13.3516 26.875 17.1484C26.875 20.9453 23.7969 24.0234 20 24.0234Z" fill="#83BC25"/>
</svg>
