<svg width="56" height="57" viewBox="0 0 56 57" fill="none" xmlns="http://www.w3.org/2000/svg">
<g clip-path="url(#clip0_287_162)">
<path d="M39.9114 0.5H10.8062C9.50658 0.5 8.45312 1.90638 8.45312 3.20601V46.9906H42.2645V26.9151H43.321L43.3252 41.9622C43.3031 42.201 43.1393 44.3396 44.3988 45.7248C45.0475 46.438 45.9594 46.8153 47.035 46.8153C48.0525 46.8153 48.9189 46.4496 49.5402 45.7576C50.751 44.4093 50.639 42.2771 50.5979 41.8112L50.8397 18.4242L48.7265 18.402L48.4836 41.9062L48.4899 41.9685C48.5258 42.3066 48.5449 43.7023 47.9669 44.3448C47.8295 44.4981 47.5834 44.7009 47.034 44.7009C46.4011 44.7009 46.1211 44.4759 45.9657 44.3058C45.4237 43.7151 45.3952 42.5549 45.4342 42.0614V24.802H42.2645V3.20601C42.2645 1.90638 41.211 0.5 39.9114 0.5ZM36.9815 19.5189H14.7928V6.83963H36.9814L36.9815 19.5189ZM27.6337 41.9949C26.2854 40.1649 23.9989 36.7426 23.7729 34.2977C23.7729 34.2977 23.8173 39.0597 25.4687 42.6934C25.4011 42.7018 25.3472 42.706 25.3102 42.706C24.7301 42.7103 19.7788 42.5866 19.7324 35.8772C19.686 29.1677 26.3509 25.3586 26.3509 25.3586C24.9922 32.1304 30.6778 32.459 30.7095 37.1166C30.7285 39.812 29.1119 41.2543 27.6337 41.9949Z" fill="#83BC25"/>
<path d="M45.4342 49.1038H4.22656V56.5001H45.4342V49.1038Z" fill="#83BC25"/>
<path d="M43.3213 8.93592L44.287 9.27713C44.25 10.413 44.3926 12.1712 45.4472 13.4042C45.9829 14.0308 46.7679 14.4292 47.5477 14.6299V17.4057H51.7741V7.43762L43.3213 4.74332V8.93592ZM47.5477 13.5713C47.0268 13.4148 46.5936 13.1422 46.2312 12.7196C45.4936 11.8595 45.3426 10.6032 45.3542 9.65337L47.5477 10.4278V13.5713Z" fill="#83BC25"/>
</g>
<defs>
<clipPath id="clip0_287_162">
<rect width="56" height="56" fill="white" transform="translate(0 0.5)"/>
</clipPath>
</defs>
</svg>
