<svg width="51" height="51" viewBox="0 0 51 51" fill="none" xmlns="http://www.w3.org/2000/svg">
<g clip-path="url(#clip0_247_759)">
<path d="M38.25 25.4915V10.6165C38.25 4.75786 33.4836 -0.0085144 27.625 -0.0085144H10.625C4.76638 -0.0085144 0 4.75786 0 10.6165V37.9312C0 39.6164 0.924375 41.1591 2.40975 41.956C3.0855 42.3194 3.82712 42.4979 4.56662 42.4979C5.45062 42.4979 6.3325 42.2407 7.0975 41.7329L15.5189 36.1165H27.625C33.4836 36.1165 38.25 31.3501 38.25 25.4915ZM19.125 29.75C17.952 29.75 17 28.798 17 27.625C17 26.452 17.952 25.5 19.125 25.5C20.298 25.5 21.25 26.452 21.25 27.625C21.25 28.798 20.298 29.75 19.125 29.75ZM22.1999 20.4616C21.25 20.9844 21.25 21.1374 21.25 21.25C21.25 22.4251 20.298 23.375 19.125 23.375C17.952 23.375 17 22.4251 17 21.25C17 18.4705 19.2057 17.2571 20.1471 16.7386C20.7634 16.4007 21.4115 15.6017 21.2139 14.4734C21.0672 13.6404 20.3596 12.9327 19.5287 12.7882C18.8785 12.6692 18.2495 12.835 17.7607 13.2472C17.2762 13.651 17 14.246 17 14.8771C17 16.0522 16.048 17.0021 14.875 17.0021C13.702 17.0021 12.75 16.0522 12.75 14.8771C12.75 12.988 13.5809 11.2072 15.028 9.99174C16.4751 8.77624 18.3791 8.26199 20.2619 8.60411C22.831 9.05249 24.9454 11.1647 25.398 13.7402C25.8719 16.4432 24.5863 19.1441 22.1978 20.4637L22.1999 20.4616ZM51 19.1165V46.4312C51 48.1164 50.0756 49.6591 48.5902 50.456C47.9145 50.8194 47.1729 50.9979 46.4334 51C45.5494 51 44.6675 50.7429 43.9046 50.235L35.4811 44.6165H23.375C20.2938 44.6165 17.5376 43.2756 15.5954 41.174L16.8045 40.3665H27.625C35.8254 40.3665 42.5 33.6919 42.5 25.4915V10.6165C42.5 9.96199 42.4426 9.32449 42.3619 8.69124C47.2728 9.62624 51 13.9379 51 19.1165Z" fill="#F9FBF2"/>
</g>
<defs>
<clipPath id="clip0_247_759">
<rect width="51" height="51" fill="white"/>
</clipPath>
</defs>
</svg>
