<svg width="56" height="57" viewBox="0 0 56 57" fill="none" xmlns="http://www.w3.org/2000/svg">
<g clip-path="url(#clip0_287_172)">
<path d="M0.335645 9.01025C0.634258 7.76735 2.18256 7.32643 3.09098 8.23495L9.13499 14.2823H13.7783V9.63898L7.74223 3.60613C6.83808 2.70197 7.27386 1.15531 8.51053 0.852432C11.3647 0.153481 15.996 0.257831 19.5766 3.83725C22.7093 6.96995 23.7156 11.646 22.2433 15.7861L40.7136 34.2564C44.8537 32.7841 49.5298 33.7904 52.6625 36.9231C56.1519 40.4125 56.3574 45.0917 55.6603 47.9935C55.3617 49.2364 53.8134 49.6773 52.905 48.7688L46.861 42.7215H42.2177V47.3647L48.2522 53.396C49.1566 54.3003 48.7204 55.8473 47.4834 56.1498C44.6303 56.8474 40.0008 56.7466 36.4195 53.1664C33.2868 50.0337 32.2805 45.3576 33.7527 41.2175L15.2825 22.7472C11.1424 24.2195 6.46738 23.2132 3.33359 20.0805C-0.155918 16.5912 -0.361447 11.9121 0.335645 9.01025Z" fill="#83BC25"/>
<path d="M27.9983 40.1041L14.0007 54.1006C11.1994 56.9019 6.85913 57.2508 3.67611 55.1441L16.3218 42.4995C16.9617 41.8586 16.9617 40.8194 16.3218 40.1785C15.6808 39.5386 14.6417 39.5386 14.0007 40.1785L1.35612 52.8241C-0.750582 49.6411 -0.402747 45.3008 2.39962 42.4995L16.3962 28.5019L27.9983 40.1041Z" fill="#83BC25"/>
<path d="M55.8276 5.19481L51.1865 14.4759C50.9458 14.9583 50.4842 15.2908 49.9505 15.3673L42.3714 16.4491L34.9596 23.8609L32.6396 21.5409L40.0503 14.1302L41.1332 6.55006C41.2097 6.01627 41.5423 5.55468 42.0246 5.31404L51.3057 0.672959C51.9368 0.357939 52.7003 0.48154 53.1991 0.980323L55.5202 3.30141C56.019 3.80019 56.1426 4.56368 55.8276 5.19481Z" fill="#83BC25"/>
</g>
<defs>
<clipPath id="clip0_287_172">
<rect width="56" height="56" fill="white" transform="translate(0 0.5)"/>
</clipPath>
</defs>
</svg>
